<svg width="800" height="450" xmlns="http://www.w3.org/2000/svg">
  <defs>
    <linearGradient id="bg" x1="0%" y1="0%" x2="100%" y2="100%">
      <stop offset="0%" stop-color="#0f1a2e"/><stop offset="100%" stop-color="#1a2a3e"/>
    </linearGradient>
  </defs>
  <rect width="800" height="450" fill="url(#bg)"/>

  <text x="40" y="55" fill="#ffffff" font-family="Georgia,serif" font-size="24" font-weight="bold">Kenya Tech</text>
  <text x="40" y="80" fill="#e30613" font-family="Georgia,serif" font-size="16">Nairobi, pole numerique africain</text>

  <!-- Cercles tech -->
  <circle cx="580" cy="180" r="80" fill="none" stroke="#e30613" stroke-width="1" opacity="0.2"/>
  <circle cx="580" cy="180" r="50" fill="none" stroke="#e30613" stroke-width="1" opacity="0.3"/>
  <circle cx="580" cy="180" r="25" fill="#e30613" opacity="0.3"/>
  <text x="580" y="185" text-anchor="middle" fill="#fff" font-size="10">Nairobi</text>

  <!-- Lignes connectivite -->
  <line x1="580" y1="180" x2="450" y2="100" stroke="#e30613" stroke-width="0.5" opacity="0.3"/>
  <line x1="580" y1="180" x2="700" y2="260" stroke="#e30613" stroke-width="0.5" opacity="0.3"/>
  <line x1="580" y1="180" x2="450" y2="280" stroke="#e30613" stroke-width="0.5" opacity="0.3"/>

  <rect x="40" y="120" width="220" height="65" rx="6" fill="#ffffff" opacity="0.08"/>
  <text x="60" y="148" fill="#e30613" font-size="26" font-weight="bold">7&</text>
  <text x="95" y="148" fill="#ccc" font-size="12">startups licornes africaines</text>
  <text x="60" y="170" fill="#999" font-size="11">3 sont kenyanes (Safaricom, etc.)</text>

  <rect x="40" y="200" width="220" height="65" rx="6" fill="#ffffff" opacity="0.08"/>
  <text x="60" y="228" fill="#e30613" font-size="26" font-weight="bold">4,5&</text>
  <text x="100" y="228" fill="#ccc" font-size="12">milliards $ levés en 2025</text>
  <text x="60" y="250" fill="#999" font-size="11">1er pays d'Afrique subsaharienne</text>

  <rect x="40" y="280" width="220" height="65" rx="6" fill="#ffffff" opacity="0.08"/>
  <text x="60" y="308" fill="#e30613" font-size="26" font-weight="bold">85%</text>
  <text x="110" y="308" fill="#ccc" font-size="12">paiements via mobile</text>
  <text x="60" y="330" fill="#999" font-size="11">M-Pesa leader inconteste</text>

  <text x="400" y="430" text-anchor="middle" fill="#555" font-size="11">Valeurs Africaines — Analyse geopolitique</text>
</svg>
