<svg width="800" height="450" xmlns="http://www.w3.org/2000/svg">
  <defs>
    <linearGradient id="bg" x1="0%" y1="0%" x2="100%" y2="100%">
      <stop offset="0%" stop-color="#1a1a2e"/><stop offset="100%" stop-color="#16213e"/>
    </linearGradient>
  </defs>
  <rect width="800" height="450" fill="url(#bg)"/>
  <text x="40" y="55" fill="#ffffff" font-family="Georgia,serif" font-size="24" font-weight="bold">Tchad</text>
  <text x="40" y="80" fill="#e30613" font-family="Georgia,serif" font-size="16">Equilibres internes et projection regionale</text>

  <!-- Carte simplifiee -->
  <path d="M550,100 L620,140 L650,220 L630,310 L580,360 L520,370 L480,330 L460,270 L470,200 L500,130 Z" fill="none" stroke="#e30613" stroke-width="2" opacity="0.3"/>
  <circle cx="550" cy="210" r="6" fill="#e30613"/>
  <text x="565" y="215" fill="#ffffff" font-size="11">N'Djamena</text>

  <!-- Stats -->
  <rect x="40" y="120" width="220" height="65" rx="6" fill="#ffffff" opacity="0.08"/>
  <text x="60" y="148" fill="#e30613" font-size="26" font-weight="bold">6&</text>
  <text x="95" y="148" fill="#ccc" font-size="12">millions d'habitants</text>
  <text x="60" y="170" fill="#999" font-size="11">Pays enclave, Sahel central</text>

  <rect x="40" y="200" width="220" height="65" rx="6" fill="#ffffff" opacity="0.08"/>
  <text x="60" y="228" fill="#e30613" font-size="26" font-weight="bold">4</text>
  <text x="85" y="228" fill="#ccc" font-size="12">pays voisins en crise</text>
  <text x="60" y="250" fill="#999" font-size="11">Libye, Soudan, RCA, Nigeria</text>

  <rect x="40" y="280" width="220" height="65" rx="6" fill="#ffffff" opacity="0.08"/>
  <text x="60" y="308" fill="#e30613" font-size="26" font-weight="bold">40%</text>
  <text x="110" y="308" fill="#ccc" font-size="12">population sous le seuil</text>
  <text x="60" y="330" fill="#999" font-size="11">de pauvrete</text>

  <text x="400" y="430" text-anchor="middle" fill="#555" font-size="11">Valeurs Africaines — Analyse geopolitique</text>
</svg>
